<?xml version="1.0" standalone="no"?>
<!DOCTYPE svg PUBLIC "-//W3C//DTD SVG 20010904//EN"
 "http://www.w3.org/TR/2001/REC-SVG-20010904/DTD/svg10.dtd">
<svg version="1.0" xmlns="http://www.w3.org/2000/svg"
 width="1080.000000pt" height="1080.000000pt" viewBox="0 0 1080.000000 1080.000000"
 preserveAspectRatio="xMidYMid meet">
<metadata>
Created by potrace 1.16, written by Peter Selinger 2001-2019
</metadata>
<g transform="translate(0.000000,1080.000000) scale(0.100000,-0.100000)"
fill="#000000" stroke="none">
<path d="M1804 9179 c-82 -42 -149 -111 -190 -195 l-36 -71 4 -129 c3 -112 7
-136 27 -178 34 -68 121 -158 186 -192 l55 -29 0 -480 c0 -296 4 -494 10 -517
6 -20 24 -48 41 -62 l31 -26 639 0 639 0 31 28 c60 54 48 171 -21 207 -25 13
-106 15 -570 15 l-540 0 0 414 0 414 56 27 c117 57 204 183 224 323 25 181
-70 366 -234 451 -55 30 -64 31 -176 31 -112 0 -121 -2 -176 -31z m263 -241
c43 -26 77 -97 70 -149 -12 -92 -76 -159 -150 -159 -122 0 -198 139 -137 248
49 86 134 110 217 60z"/>
<path d="M8742 8919 c-71 -12 -157 -58 -214 -113 -86 -86 -128 -186 -128 -308
0 -172 89 -315 238 -382 l42 -19 0 -353 0 -353 -537 -3 c-480 -3 -541 -5 -568
-20 -83 -45 -79 -181 6 -225 18 -10 172 -13 647 -13 546 0 627 2 653 16 58 29
59 41 59 517 l0 433 54 23 c192 79 286 352 192 557 -81 176 -259 274 -444 243z
m158 -287 c43 -31 72 -100 66 -155 -11 -101 -69 -151 -164 -144 -64 5 -99 28
-130 88 -27 51 -24 103 10 157 47 76 151 102 218 54z"/>
<path d="M5110 8274 c-65 -17 -203 -81 -263 -122 -102 -71 -185 -162 -251
-274 l-28 -48 -46 24 c-144 72 -329 92 -492 54 -273 -63 -509 -268 -609 -528
-31 -81 -61 -217 -61 -275 0 -30 -3 -33 -46 -44 -159 -40 -345 -175 -445 -323
-106 -156 -159 -330 -159 -522 0 -66 4 -126 8 -132 28 -41 194 -101 307 -110
131 -11 301 45 398 131 l39 34 -35 98 c-35 99 -53 180 -48 218 1 11 17 35 36
53 28 25 43 32 76 32 62 0 92 -35 113 -135 45 -204 151 -325 283 -325 41 0 58
-5 82 -26 61 -51 57 -145 -8 -178 -38 -20 -142 -21 -206 -2 -26 8 -72 31 -101
50 -30 20 -57 36 -60 36 -4 0 -30 -17 -58 -38 -250 -188 -576 -223 -837 -92
l-59 30 -14 -22 c-79 -121 -122 -363 -97 -539 15 -99 60 -244 99 -314 27 -49
28 -50 126 -83 180 -61 322 -53 486 25 103 49 209 156 268 271 30 56 52 87 72
97 65 34 130 6 151 -66 12 -38 10 -44 -34 -132 -84 -167 -208 -292 -372 -373
-139 -68 -193 -79 -375 -77 -85 1 -170 3 -189 5 -34 3 -35 2 -48 -47 -30 -116
-31 -326 -2 -448 46 -194 183 -398 344 -512 71 -50 177 -105 203 -105 10 0 31
14 48 31 16 17 56 50 89 74 230 164 509 199 761 94 94 -39 220 -123 239 -159
41 -79 -7 -160 -95 -160 -23 0 -50 14 -94 46 -105 80 -202 114 -327 114 -162
0 -290 -48 -401 -150 l-63 -58 24 -72 c48 -141 153 -289 275 -387 225 -179
534 -225 803 -117 35 14 66 24 67 22 2 -1 15 -22 30 -45 38 -62 151 -179 222
-229 78 -55 193 -109 276 -129 35 -8 66 -15 71 -15 4 0 7 317 7 705 0 463 3
705 10 705 6 0 10 3 10 8 0 4 -48 7 -107 7 -119 0 -160 11 -268 74 -76 44
-191 154 -205 196 -14 41 -2 73 40 108 22 19 43 27 69 27 33 0 46 -8 100 -61
80 -78 167 -120 260 -127 42 -3 76 0 89 7 l22 12 -2 517 -3 517 -55 7 c-133
17 -310 102 -412 198 -52 50 -58 60 -58 96 0 52 28 90 76 103 45 12 69 3 136
-50 61 -49 168 -101 251 -122 l57 -15 0 709 0 709 -47 35 c-68 49 -151 75
-243 75 -112 0 -194 -32 -290 -112 -56 -46 -96 -56 -138 -34 -43 22 -62 53
-62 100 0 36 6 46 55 91 124 115 275 176 440 178 84 0 112 -4 175 -27 41 -15
83 -29 93 -33 16 -5 17 30 17 641 0 609 -1 646 -17 645 -10 0 -43 -7 -73 -15z"/>
<path d="M5427 8274 c-4 -4 -7 -295 -7 -646 0 -726 -11 -653 95 -617 85 29
239 36 330 15 96 -23 198 -75 275 -141 107 -91 123 -150 58 -215 -51 -51 -95
-41 -186 41 -152 138 -371 154 -531 39 l-41 -30 2 -688 3 -687 30 2 c60 5 170
70 264 158 83 78 94 85 132 85 59 0 99 -42 99 -104 0 -40 -6 -52 -55 -110
-100 -117 -236 -203 -396 -249 l-84 -25 -3 -514 -2 -514 64 -42 c123 -81 230
-112 383 -112 181 0 320 60 469 202 98 94 131 110 183 88 41 -16 61 -51 61
-103 0 -39 -6 -49 -65 -114 -85 -93 -169 -155 -280 -209 -140 -68 -224 -87
-390 -88 -152 -1 -243 17 -361 69 -31 14 -60 25 -65 25 -5 0 -9 -308 -9 -705
l0 -705 26 0 c45 0 206 59 279 102 39 23 105 77 148 120 l79 79 75 -26 c383
-132 800 52 982 435 39 82 81 219 81 266 0 19 7 24 38 30 173 32 364 150 482
297 63 79 144 239 171 342 17 63 22 111 23 222 1 163 5 156 -99 218 -88 53
-174 77 -275 77 -165 1 -269 -43 -402 -169 -76 -73 -92 -83 -124 -83 -73 0
-134 83 -104 141 47 88 177 199 305 260 122 59 190 74 335 74 144 0 240 -22
350 -81 35 -19 70 -34 77 -34 30 0 139 164 185 277 127 318 71 671 -146 928
l-25 29 -38 -22 c-59 -35 -121 -61 -203 -85 -61 -18 -100 -21 -210 -21 -165 1
-250 21 -397 95 l-102 51 -75 -50 c-79 -53 -169 -92 -212 -92 -37 0 -82 27
-99 59 -31 61 13 135 96 160 102 31 187 97 234 182 26 47 30 65 32 139 1 47 2
91 2 98 1 8 14 27 30 43 23 22 39 29 70 29 59 0 99 -39 110 -106 9 -63 -3
-184 -24 -238 -19 -47 -19 -48 77 -97 162 -82 381 -77 551 13 34 18 95 64 134
102 l73 69 0 102 c0 233 -96 455 -269 625 -145 142 -343 229 -523 230 l-58 0
0 33 c0 53 -39 197 -73 272 -52 114 -95 175 -191 270 -147 145 -312 219 -516
231 -88 5 -142 -1 -275 -33 -16 -3 -32 9 -69 57 -50 64 -151 149 -226 192 -88
50 -264 101 -283 82z"/>
<path d="M1944 3376 c-17 -8 -40 -26 -52 -41 -22 -27 -22 -31 -22 -476 l0
-448 -61 -32 c-236 -126 -302 -438 -135 -642 90 -110 211 -163 353 -155 289
17 467 339 338 612 -44 93 -141 182 -217 201 l-28 7 0 364 0 364 555 2 555 3
26 26 c18 19 28 41 32 74 7 64 -17 108 -73 135 -40 19 -60 20 -641 20 -479 -1
-605 -3 -630 -14z m126 -1238 c51 -35 73 -71 78 -131 13 -160 -157 -243 -262
-127 -41 46 -50 74 -43 136 12 112 140 181 227 122z"/>
<path d="M7444 3379 c-71 -20 -107 -116 -69 -188 31 -61 29 -61 620 -61 l535
0 -1 -362 0 -363 -57 -27 c-156 -74 -255 -268 -225 -443 23 -137 116 -259 240
-318 63 -30 75 -32 173 -32 98 0 110 2 171 32 220 108 302 374 183 593 -35 65
-128 151 -188 176 l-46 19 0 448 c0 503 1 492 -70 521 -36 14 -108 16 -638 15
-328 0 -611 -5 -628 -10z m1286 -1241 c59 -41 75 -72 75 -146 0 -76 -23 -120
-78 -149 -135 -70 -279 87 -207 227 43 83 140 115 210 68z"/>
</g>
</svg>
