<?xml version="1.0" standalone="no"?>
<!DOCTYPE svg PUBLIC "-//W3C//DTD SVG 20010904//EN"
 "http://www.w3.org/TR/2001/REC-SVG-20010904/DTD/svg10.dtd">
<svg version="1.0" xmlns="http://www.w3.org/2000/svg"
 width="1080.000000pt" height="1080.000000pt" viewBox="0 0 1080.000000 1080.000000"
 preserveAspectRatio="xMidYMid meet">
<metadata>
Created by potrace 1.16, written by Peter Selinger 2001-2019
</metadata>
<g transform="translate(0.000000,1080.000000) scale(0.100000,-0.100000)"
fill="#000000" stroke="none">
<path d="M1870 5400 l0 -4770 1178 2 1177 3 0 285 0 285 -887 3 -888 2 0 4190
0 4190 890 0 890 0 -2 288 -3 287 -1177 3 -1178 2 0 -4770z"/>
<path d="M6587 10163 c-4 -3 -7 -134 -7 -290 l0 -283 885 0 885 0 0 -4190 0
-4190 -885 0 -885 0 0 -290 0 -290 1175 0 1175 0 0 4770 0 4770 -1168 0 c-643
0 -1172 -3 -1175 -7z"/>
<path d="M4311 7170 c-151 -54 -281 -190 -333 -349 -21 -63 -22 -89 -27 -528
l-6 -462 -167 -169 -168 -169 0 -84 c0 -62 4 -91 16 -109 9 -14 86 -95 170
-180 l153 -155 4 -460 c4 -499 3 -486 64 -611 37 -78 141 -183 218 -222 90
-45 158 -62 275 -69 175 -10 184 1 178 217 -4 154 -9 160 -132 160 -120 1
-176 31 -211 113 -13 31 -15 107 -15 516 0 314 -4 489 -11 508 -5 15 -67 85
-137 155 l-126 128 122 123 c68 70 128 139 137 160 13 31 15 109 15 519 0 469
1 483 21 525 33 68 90 96 206 101 130 6 133 10 133 186 0 184 8 176 -178 176
-119 -1 -157 -4 -201 -20z"/>
<path d="M6116 7155 c-15 -30 -17 -59 -14 -162 3 -117 4 -126 27 -144 17 -14
39 -19 90 -19 127 -1 180 -25 219 -100 22 -44 22 -46 22 -522 0 -408 2 -484
15 -516 9 -22 68 -89 143 -165 l127 -127 -128 -128 c-71 -70 -134 -137 -140
-147 -9 -14 -13 -169 -17 -525 -4 -358 -8 -511 -17 -525 -18 -31 -65 -73 -96
-84 -16 -6 -62 -11 -103 -11 -88 0 -111 -10 -130 -55 -17 -41 -19 -227 -3
-273 14 -40 50 -52 153 -52 236 1 423 111 516 303 21 45 43 109 49 141 7 36
11 228 11 490 l0 431 161 160 c88 88 168 174 176 190 22 41 21 131 -2 175 -9
19 -89 107 -176 195 l-158 160 -3 460 -3 460 -26 71 c-52 143 -143 245 -278
312 l-75 37 -161 3 -162 4 -17 -37z"/>
<path d="M5315 6656 c-234 -60 -351 -307 -246 -521 64 -129 178 -198 331 -199
75 0 93 3 152 31 128 60 199 166 206 306 5 93 -10 153 -53 223 -83 130 -246
198 -390 160z"/>
<path d="M5258 5207 c-299 -126 -306 -545 -11 -674 35 -15 63 -33 63 -39 0
-26 -102 -113 -156 -134 -30 -11 -61 -20 -69 -20 -7 0 -23 -12 -34 -26 -19
-24 -21 -40 -21 -163 0 -124 2 -139 20 -159 25 -27 96 -30 185 -7 182 46 327
168 414 348 78 160 117 350 109 536 -3 80 -8 106 -30 152 -41 82 -88 131 -164
170 -60 30 -78 34 -158 37 -77 2 -100 -1 -148 -21z"/>
</g>
</svg>
