<?xml version="1.0" standalone="no"?>
<!DOCTYPE svg PUBLIC "-//W3C//DTD SVG 20010904//EN"
 "http://www.w3.org/TR/2001/REC-SVG-20010904/DTD/svg10.dtd">
<svg version="1.0" xmlns="http://www.w3.org/2000/svg"
 width="1080.000000pt" height="1080.000000pt" viewBox="0 0 1080.000000 1080.000000"
 preserveAspectRatio="xMidYMid meet">
<metadata>
Created by potrace 1.16, written by Peter Selinger 2001-2019
</metadata>
<g transform="translate(0.000000,1080.000000) scale(0.100000,-0.100000)"
fill="#000000" stroke="none">
<path d="M99 10688 c0 -14 485 -990 2015 -4053 538 -1078 1491 -2987 2117
-4242 660 -1325 1143 -2283 1151 -2283 7 0 422 818 985 1943 535 1068 1728
3451 2652 5295 l1679 3352 -5299 0 c-4232 0 -5299 -3 -5300 -12z m8508 -2045
c-304 -610 -893 -1785 -1309 -2613 -416 -828 -1011 -2017 -1324 -2642 -313
-626 -571 -1134 -575 -1130 -4 4 -793 1577 -1754 3497 -961 1920 -1806 3604
-1877 3743 l-129 252 3760 0 3760 0 -552 -1107z"/>
</g>
</svg>
